<svg width="1200" height="630" viewBox="0 0 1200 630" fill="none" xmlns="http://www.w3.org/2000/svg" role="img" aria-labelledby="title desc">
  <title id="title">UX Accessibility Review Kit preview</title>
  <desc id="desc">Preview image showing the checklist app interface with category filters and review cards.</desc>
  <rect width="1200" height="630" fill="#f7f5ef"/>
  <rect x="86" y="72" width="1028" height="486" rx="18" fill="#ffffff" stroke="#d8d3c8"/>
  <text x="136" y="150" fill="#164f56" font-family="Arial, sans-serif" font-size="18" font-weight="700">OPEN-SOURCE UX TOOL</text>
  <text x="136" y="220" fill="#252525" font-family="Arial, sans-serif" font-size="54" font-weight="800">UX Accessibility</text>
  <text x="136" y="282" fill="#252525" font-family="Arial, sans-serif" font-size="54" font-weight="800">Review Kit</text>
  <text x="136" y="334" fill="#5f6470" font-family="Arial, sans-serif" font-size="24">A practical checklist for reviewing interfaces</text>
  <text x="136" y="368" fill="#5f6470" font-family="Arial, sans-serif" font-size="24">before handoff, launch, or portfolio publication.</text>
  <rect x="136" y="426" width="220" height="56" rx="8" fill="#1f6f78"/>
  <text x="175" y="462" fill="#ffffff" font-family="Arial, sans-serif" font-size="20" font-weight="700">Try the checklist</text>
  <rect x="650" y="130" width="378" height="78" rx="10" fill="#f7f5ef" stroke="#d8d3c8"/>
  <circle cx="690" cy="169" r="14" fill="#1f6f78"/>
  <text x="724" y="162" fill="#164f56" font-family="Arial, sans-serif" font-size="15" font-weight="700">Keyboard</text>
  <text x="724" y="188" fill="#252525" font-family="Arial, sans-serif" font-size="20" font-weight="700">Show visible focus</text>
  <rect x="650" y="232" width="378" height="78" rx="10" fill="#f7f5ef" stroke="#d8d3c8"/>
  <circle cx="690" cy="271" r="14" fill="#b8512f"/>
  <text x="724" y="264" fill="#164f56" font-family="Arial, sans-serif" font-size="15" font-weight="700">Forms</text>
  <text x="724" y="290" fill="#252525" font-family="Arial, sans-serif" font-size="20" font-weight="700">Label every input</text>
  <rect x="650" y="334" width="378" height="78" rx="10" fill="#f7f5ef" stroke="#d8d3c8"/>
  <circle cx="690" cy="373" r="14" fill="#5f6470"/>
  <text x="724" y="366" fill="#164f56" font-family="Arial, sans-serif" font-size="15" font-weight="700">Responsive</text>
  <text x="724" y="392" fill="#252525" font-family="Arial, sans-serif" font-size="20" font-weight="700">Review small screens</text>
  <rect x="650" y="436" width="378" height="78" rx="10" fill="#f7f5ef" stroke="#d8d3c8"/>
  <circle cx="690" cy="475" r="14" fill="#1f6f78"/>
  <text x="724" y="468" fill="#164f56" font-family="Arial, sans-serif" font-size="15" font-weight="700">Content</text>
  <text x="724" y="494" fill="#252525" font-family="Arial, sans-serif" font-size="20" font-weight="700">Use specific action labels</text>
</svg>
